<svg xmlns="http://www.w3.org/2000/svg" xmlns:xlink="http://www.w3.org/1999/xlink" width="100%" height="100%" version="1.1" viewBox="0 0 88 88" xml:space="preserve" style="fill-rule:evenodd;clip-rule:evenodd;stroke-linejoin:round;stroke-miterlimit:2"><path id="icon-link" d="M75.996,64.411c0,-1.395 -0.488,-2.581 -1.465,-3.558l-10.882,-10.881c-0.976,-0.977 -2.162,-1.465 -3.557,-1.465c-1.465,-0 -2.72,0.558 -3.767,1.674c0.105,0.105 0.436,0.427 0.994,0.968c0.558,0.54 0.933,0.915 1.125,1.125c0.192,0.209 0.453,0.54 0.785,0.994c0.331,0.453 0.558,0.898 0.68,1.334c0.122,0.436 0.183,0.915 0.183,1.438c0,1.396 -0.488,2.581 -1.465,3.558c-0.976,0.976 -2.162,1.465 -3.557,1.465c-0.523,-0 -1.003,-0.061 -1.439,-0.183c-0.436,-0.122 -0.881,-0.349 -1.334,-0.68c-0.453,-0.332 -0.785,-0.593 -0.994,-0.785c-0.209,-0.192 -0.584,-0.567 -1.125,-1.125c-0.54,-0.558 -0.863,-0.889 -0.968,-0.994c-1.151,1.081 -1.726,2.354 -1.726,3.819c-0,1.395 0.488,2.581 1.465,3.558l10.777,10.829c0.941,0.942 2.127,1.412 3.557,1.412c1.395,0 2.581,-0.453 3.558,-1.36l7.69,-7.638c0.977,-0.976 1.465,-2.145 1.465,-3.505Zm-36.778,-36.883c-0,-1.395 -0.488,-2.581 -1.465,-3.557l-10.777,-10.83c-0.976,-0.976 -2.162,-1.464 -3.557,-1.464c-1.361,-0 -2.546,0.47 -3.558,1.412l-7.69,7.638c-0.977,0.977 -1.465,2.145 -1.465,3.505c-0,1.395 0.488,2.581 1.465,3.558l10.881,10.882c0.942,0.941 2.128,1.412 3.558,1.412c1.465,0 2.72,-0.541 3.767,-1.622c-0.105,-0.104 -0.436,-0.427 -0.994,-0.968c-0.558,-0.54 -0.933,-0.915 -1.125,-1.124c-0.192,-0.21 -0.454,-0.541 -0.785,-0.994c-0.331,-0.454 -0.558,-0.898 -0.68,-1.334c-0.122,-0.436 -0.183,-0.916 -0.183,-1.439c-0,-1.395 0.488,-2.581 1.465,-3.558c0.976,-0.976 2.162,-1.464 3.557,-1.464c0.523,-0 1.003,0.061 1.439,0.183c0.436,0.122 0.881,0.348 1.334,0.68c0.453,0.331 0.785,0.593 0.994,0.785c0.209,0.191 0.584,0.566 1.125,1.124c0.54,0.558 0.863,0.89 0.968,0.994c1.151,-1.081 1.726,-2.354 1.726,-3.819Zm42.428,26.211c2.93,2.929 4.395,6.487 4.395,10.672c-0,4.185 -1.483,7.725 -4.447,10.62l-7.691,7.638c-2.894,2.895 -6.434,4.342 -10.62,4.342c-4.22,0 -7.777,-1.482 -10.672,-4.446l-10.777,-10.83c-2.895,-2.895 -4.342,-6.435 -4.342,-10.62c-0,-4.29 1.534,-7.935 4.603,-10.934l-4.603,-4.604c-3,3.069 -6.627,4.604 -10.882,4.604c-4.185,0 -7.743,-1.465 -10.673,-4.394l-10.881,-10.882c-2.93,-2.93 -4.395,-6.487 -4.395,-10.673c0,-4.185 1.482,-7.725 4.447,-10.62l7.69,-7.638c2.895,-2.895 6.435,-4.342 10.621,-4.342c4.22,-0 7.777,1.482 10.672,4.447l10.777,10.829c2.895,2.895 4.342,6.435 4.342,10.62c0,4.29 -1.534,7.935 -4.603,10.934l4.603,4.604c3,-3.069 6.627,-4.604 10.882,-4.604c4.185,0 7.743,1.465 10.672,4.395l10.882,10.882Z" style="fill:#fff;fill-rule:nonzero"/></svg>