<svg xmlns="http://www.w3.org/2000/svg" xmlns:xlink="http://www.w3.org/1999/xlink" width="100%" height="100%" version="1.1" viewBox="0 0 85 66" xml:space="preserve" style="fill-rule:evenodd;clip-rule:evenodd;stroke-linejoin:round;stroke-miterlimit:2"><path id="icon-upload-image" d="M25.912,13.21c1.563,1.562 2.344,3.459 2.344,5.692c-0,2.232 -0.781,4.129 -2.344,5.691c-1.562,1.563 -3.46,2.344 -5.692,2.344c-2.232,0 -4.129,-0.781 -5.692,-2.344c-1.562,-1.562 -2.344,-3.459 -2.344,-5.691c0,-2.233 0.782,-4.13 2.344,-5.692c1.563,-1.563 3.46,-2.344 5.692,-2.344c2.232,-0 4.13,0.781 5.692,2.344Zm45.201,21.763l-0,18.75l-58.929,-0l0,-8.036l13.393,-13.393l6.697,6.697l21.428,-21.429l17.411,17.411Zm4.018,-29.464l-66.964,-0c-0.363,-0 -0.677,0.132 -0.942,0.397c-0.265,0.265 -0.398,0.579 -0.398,0.942l0,50.893c0,0.363 0.133,0.676 0.398,0.942c0.265,0.265 0.579,0.397 0.942,0.397l66.964,0c0.363,0 0.676,-0.132 0.942,-0.397c0.265,-0.266 0.397,-0.579 0.397,-0.942l0,-50.893c0,-0.363 -0.132,-0.677 -0.397,-0.942c-0.266,-0.265 -0.579,-0.397 -0.942,-0.397Zm6.696,1.339l0,50.893c0,1.841 -0.655,3.418 -1.967,4.729c-1.311,1.312 -2.888,1.967 -4.729,1.967l-66.964,0c-1.842,0 -3.418,-0.655 -4.73,-1.967c-1.311,-1.311 -1.967,-2.888 -1.967,-4.729l0,-50.893c0,-1.842 0.656,-3.418 1.967,-4.729c1.312,-1.312 2.888,-1.967 4.73,-1.967l66.964,-0c1.841,-0 3.418,0.655 4.729,1.967c1.312,1.311 1.967,2.887 1.967,4.729Z" style="fill:#00ffc5;fill-rule:nonzero"/></svg>