<svg xmlns="http://www.w3.org/2000/svg" xmlns:xlink="http://www.w3.org/1999/xlink" width="100%" height="100%" version="1.1" viewBox="0 0 494 135" xml:space="preserve" style="fill-rule:evenodd;clip-rule:evenodd;stroke-linejoin:round;stroke-miterlimit:2"><g id="powered-by-nyckel"><path d="M13.301,106.291l-0.436,1.451c-2.191,6.98 -3.612,11.937 -4.264,14.869c-0.997,4.586 -1.548,7.257 -1.654,8.013c-0.34,2.116 -1.023,3.248 -2.049,3.398c-0.725,0.105 -1.393,-0.137 -2.003,-0.726c-0.536,-0.508 -0.853,-1.094 -0.95,-1.758c-0.378,-2.597 1.764,-11.283 6.427,-26.056c-1.34,-0.73 -2.076,-1.548 -2.208,-2.454c-0.101,-0.694 0.113,-1.342 0.642,-1.944c0.452,-0.497 0.98,-0.79 1.584,-0.878c0.422,-0.062 0.996,-0.037 1.722,0.073c3.558,-10.079 5.573,-16.463 6.044,-19.154c-0.693,0.533 -1.571,1.278 -2.635,2.235c-0.602,0.519 -1.16,0.817 -1.674,0.891c-0.574,0.084 -1.083,-0.135 -1.529,-0.656c-0.299,-0.357 -0.479,-0.747 -0.541,-1.17c-0.207,-1.419 0.794,-3.123 3.002,-5.11c1.774,-1.584 3.443,-2.938 5.006,-4.06c0.166,-0.764 0.26,-1.287 0.281,-1.567c0.134,-1.192 0.339,-2.008 0.614,-2.449c0.275,-0.441 0.76,-0.712 1.455,-0.813c1.419,-0.207 2.243,0.475 2.472,2.045c1.996,-0.908 3.772,-1.629 5.328,-2.164c1.557,-0.535 2.894,-0.884 4.011,-1.047c2.929,-0.427 5.568,0.329 7.917,2.269c2.211,1.837 3.508,4.069 3.89,6.696c0.665,4.56 -0.573,9.397 -3.714,14.512c-2.698,4.341 -6.305,7.95 -10.82,10.828c-3.899,2.45 -7.932,3.978 -12.099,4.585c-0.997,0.146 -2.27,0.192 -3.819,0.141Zm8.657,-29.48c-0.561,3.134 -1.633,7.207 -3.216,12.218c-1.951,6.082 -3.206,10.059 -3.767,11.929c1.705,0.06 2.89,0.041 3.554,-0.055c3.443,-0.502 7.257,-2.476 11.442,-5.924c4.044,-3.364 7.026,-7.237 8.947,-11.619c1.184,-2.671 1.637,-4.957 1.36,-6.86c-0.251,-1.721 -1.02,-2.927 -2.309,-3.618c-1.288,-0.692 -3.109,-0.866 -5.465,-0.523c-1.782,0.26 -3.552,0.757 -5.311,1.491c-1.758,0.735 -3.504,1.721 -5.235,2.961Z" style="fill:#fff;fill-opacity:.6;fill-rule:nonzero"/><path d="M52.604,92.838c2.477,-0.361 3.935,0.969 4.375,3.989c0.585,4.016 -0.531,9.375 -3.348,16.077c-3.074,7.263 -6.498,11.17 -10.273,11.72c-1.752,0.256 -3.154,-0.373 -4.207,-1.885c-0.541,-0.753 -0.896,-1.704 -1.063,-2.852c-0.563,-3.865 0.154,-8.256 2.151,-13.173c1.865,-4.559 4.304,-8.245 7.317,-11.059c1.765,-1.645 3.448,-2.584 5.048,-2.817Zm-2.216,17.809c-0.843,-0.494 -1.288,-0.907 -1.337,-1.239c-0.035,-0.242 0.351,-0.976 1.159,-2.204c2.274,-3.446 3.274,-6.106 3.001,-7.978c-0.035,-0.242 -0.146,-0.472 -0.332,-0.692c-0.307,-0.418 -0.718,-0.589 -1.231,-0.514c-0.967,0.141 -2.25,1.284 -3.849,3.429c-2.064,2.768 -3.543,5.527 -4.437,8.279c-1.053,3.145 -1.439,5.684 -1.157,7.617c0.075,0.513 0.276,0.946 0.605,1.299c0.472,0.486 1.01,0.686 1.614,0.598c1.45,-0.212 2.846,-1.525 4.191,-3.942c0.592,-1.011 1.045,-2.033 1.357,-3.066c0.312,-1.032 0.451,-1.561 0.416,-1.587Z" style="fill:#fff;fill-opacity:.6;fill-rule:nonzero"/><path d="M74.815,106.533c-2.086,3.881 -3.652,6.577 -4.696,8.086c-1.299,1.885 -2.443,3.347 -3.432,4.386c-1.132,1.121 -2.242,1.76 -3.329,1.919c-1.057,0.154 -1.949,-0.256 -2.677,-1.229c-0.572,-0.75 -0.93,-1.623 -1.075,-2.619c-0.48,-3.292 0.823,-8.108 3.908,-14.448c2.802,-5.743 5.064,-8.741 6.785,-8.991c0.423,-0.062 0.859,0.075 1.309,0.41c0.415,0.31 0.658,0.706 0.729,1.189c0.096,0.665 -0.358,1.672 -1.364,3.021c-2.146,2.842 -3.913,5.952 -5.302,9.331c-1.183,2.886 -1.715,4.737 -1.597,5.552c0.088,0.604 0.404,0.866 0.948,0.787c1.812,-0.264 5.165,-4.762 10.061,-13.493c1.593,-2.823 2.573,-4.462 2.938,-4.916c0.68,-0.839 1.427,-1.318 2.243,-1.437c0.543,-0.079 1.033,0.004 1.47,0.249c0.376,0.253 0.588,0.546 0.637,0.878c0.053,0.363 -0.45,1.993 -1.508,4.892c-2.447,6.278 -3.523,10.429 -3.228,12.452c0.115,0.785 0.489,1.131 1.123,1.039c1.087,-0.158 2.4,-1.629 3.937,-4.413c1.468,-2.62 2.709,-5.854 3.721,-9.702c0.436,-1.667 0.723,-3.821 0.862,-6.463c0.177,-3.017 1.172,-4.658 2.984,-4.922c1.027,-0.15 1.624,0.349 1.791,1.497c0.576,3.956 -0.836,9.713 -4.237,17.271c-3.539,7.886 -6.879,12.058 -10.019,12.516c-2.326,0.339 -3.697,-0.926 -4.115,-3.795c-0.343,-2.356 0.034,-5.371 1.133,-9.047Z" style="fill:#fff;fill-opacity:.6;fill-rule:nonzero"/><path d="M98.22,107.147l0.119,0.815c0.096,0.665 0.346,1.214 0.749,1.649c0.917,1.007 2.237,1.386 3.958,1.135c3.775,-0.55 7.716,-4.085 11.824,-10.605c0.731,-1.124 1.398,-1.73 2.002,-1.818c0.332,-0.049 0.658,0.073 0.978,0.366c0.217,0.215 0.34,0.429 0.371,0.64c0.172,1.178 -0.987,3.382 -3.477,6.613c-1.944,2.534 -4.098,4.683 -6.462,6.446c-2.365,1.764 -4.649,2.806 -6.854,3.127c-2.265,0.33 -4.161,-0.195 -5.688,-1.577c-1.034,-0.959 -1.688,-2.375 -1.961,-4.247c-0.743,-5.104 0.929,-10.452 5.018,-16.043c3.315,-4.554 6.422,-7.043 9.321,-7.465c0.785,-0.114 1.53,0.024 2.234,0.415c0.878,0.519 1.392,1.293 1.541,2.319c0.233,1.601 -0.22,3.672 -1.361,6.213c-2.346,5.276 -6.45,9.282 -12.312,12.017Zm0.481,-3.678c2.009,-1.033 3.551,-2.091 4.627,-3.173c1.876,-1.938 3.284,-4.025 4.223,-6.259c0.347,-0.79 0.479,-1.473 0.395,-2.046c-0.088,-0.604 -0.419,-0.865 -0.992,-0.781c-0.786,0.114 -1.817,0.866 -3.095,2.255c-2.294,2.462 -4.013,5.797 -5.158,10.004Z" style="fill:#fff;fill-opacity:.6;fill-rule:nonzero"/><path d="M127.484,96.545c2.497,-3.602 5.459,-7.195 8.884,-10.778c1.231,-1.289 2.563,-2.516 3.997,-3.681c0.719,-0.568 1.185,-0.867 1.396,-0.898c0.453,-0.066 0.954,0.2 1.504,0.799c0.325,0.323 0.509,0.635 0.553,0.937c0.079,0.544 -0.387,1.367 -1.398,2.47c-2.724,2.895 -3.995,4.962 -3.815,6.2c0.101,0.695 0.544,0.985 1.33,0.87c1.298,-0.189 3.377,-1.587 6.235,-4.193c0.491,-0.441 0.917,-0.689 1.28,-0.741c0.241,-0.036 0.501,0.05 0.777,0.256c0.312,0.233 0.489,0.5 0.533,0.802c0.132,0.906 -0.934,2.48 -3.197,4.722c-2.367,2.38 -4.744,3.744 -7.13,4.091c-0.966,0.141 -1.894,0.014 -2.784,-0.38c-0.756,-0.322 -1.214,-1.026 -1.372,-2.113c-0.11,-0.755 0.081,-1.662 0.575,-2.721c-2.139,2.039 -4.525,5.347 -7.158,9.925c-1.503,2.81 -2.905,6.206 -4.206,10.189c-0.492,1.49 -1.251,2.31 -2.278,2.46c-1.117,0.162 -1.753,-0.285 -1.907,-1.342c-0.15,-1.026 0.326,-3.902 1.426,-8.627c1.629,-7.022 3.597,-12.567 5.903,-16.634c1.421,-2.521 2.721,-3.866 3.899,-4.038c0.392,-0.057 0.772,0.011 1.14,0.204c0.436,0.245 0.688,0.594 0.754,1.047c0.066,0.453 -0.144,1.131 -0.629,2.034c-0.099,0.169 -0.752,1.297 -1.959,3.385c-1.099,1.98 -1.884,3.898 -2.353,5.755Z" style="fill:#fff;fill-opacity:.6;fill-rule:nonzero"/><path d="M152.034,99.306l0.119,0.815c0.096,0.664 0.346,1.214 0.749,1.649c0.917,1.007 2.237,1.385 3.958,1.134c3.775,-0.55 7.716,-4.085 11.824,-10.604c0.731,-1.125 1.398,-1.731 2.002,-1.819c0.332,-0.048 0.658,0.074 0.978,0.367c0.217,0.215 0.34,0.428 0.371,0.64c0.172,1.177 -0.987,3.382 -3.477,6.612c-1.944,2.535 -4.098,4.684 -6.462,6.447c-2.365,1.763 -4.649,2.805 -6.854,3.127c-2.265,0.33 -4.161,-0.196 -5.688,-1.577c-1.034,-0.96 -1.688,-2.375 -1.961,-4.248c-0.743,-5.103 0.929,-10.451 5.018,-16.043c3.315,-4.554 6.422,-7.042 9.321,-7.464c0.785,-0.115 1.53,0.023 2.234,0.414c0.878,0.52 1.392,1.293 1.541,2.32c0.233,1.6 -0.22,3.671 -1.361,6.212c-2.346,5.276 -6.45,9.282 -12.312,12.018Zm0.481,-3.679c2.009,-1.033 3.551,-2.09 4.627,-3.172c1.876,-1.939 3.284,-4.025 4.223,-6.259c0.347,-0.791 0.479,-1.473 0.395,-2.047c-0.088,-0.604 -0.419,-0.864 -0.992,-0.78c-0.786,0.114 -1.817,0.866 -3.095,2.255c-2.293,2.462 -4.013,5.796 -5.158,10.003Z" style="fill:#fff;fill-opacity:.6;fill-rule:nonzero"/><path d="M189.626,75.694c2.1,-6.752 4.153,-12.663 6.158,-17.736c1.937,-4.908 3.288,-8.019 4.053,-9.334c0.837,-1.448 1.709,-2.238 2.615,-2.37c0.483,-0.07 0.95,0.062 1.399,0.398c0.42,0.339 0.663,0.736 0.729,1.189c0.101,0.694 -0.243,1.932 -1.032,3.712c-3.349,7.705 -6.321,15.462 -8.914,23.272c-2.991,9.102 -4.179,15.767 -3.563,19.995c0.251,1.721 0.781,3.032 1.591,3.932c0.151,0.193 0.765,0.597 1.842,1.212c0.203,0.124 0.337,0.413 0.403,0.866c0.088,0.604 -0.065,1.189 -0.461,1.756c-0.395,0.566 -0.88,0.891 -1.454,0.975c-0.694,0.101 -1.526,-0.21 -2.495,-0.932c-1.384,-1.032 -2.311,-2.315 -2.781,-3.851c-0.188,-0.651 -0.474,-1.873 -0.859,-3.668c-2.339,6.17 -4.943,9.464 -7.812,9.882c-1.661,0.242 -3.126,-0.501 -4.395,-2.228c-0.845,-1.141 -1.382,-2.497 -1.611,-4.068c-0.686,-4.711 0.344,-9.703 3.092,-14.976c2.726,-5.208 6.052,-8.098 9.978,-8.67c1.087,-0.158 2.259,0.056 3.517,0.644Zm-0.999,3.939c-0.895,-0.425 -1.644,-0.593 -2.248,-0.505c-2.537,0.369 -4.711,2.274 -6.523,5.715c-2.4,4.482 -3.325,8.611 -2.775,12.386c0.066,0.453 0.219,0.862 0.457,1.228c0.472,0.702 1.071,1.001 1.796,0.895c1.057,-0.154 2.191,-1.368 3.401,-3.641c1.628,-3.013 3.031,-6.502 4.211,-10.467c0.42,-1.356 0.824,-2.711 1.213,-4.063c-0,0 0.094,-0.306 0.282,-0.92l0.186,-0.628Z" style="fill:#fff;fill-opacity:.6;fill-rule:nonzero"/><path d="M232.188,72.222c2.25,-2.549 4.401,-3.973 6.455,-4.272c1.268,-0.185 2.387,0.192 3.356,1.13c0.892,0.826 1.428,1.858 1.608,3.097c0.343,2.355 -0.011,5.321 -1.063,8.898c-1.18,3.965 -3.167,7.786 -5.962,11.462c-2.301,3.049 -4.674,4.752 -7.12,5.108c-0.906,0.132 -1.753,0.086 -2.541,-0.138c-0.789,-0.225 -1.518,-0.627 -2.189,-1.208c-0.18,0.458 -0.291,0.752 -0.334,0.881c-0.35,1.192 -0.606,1.924 -0.767,2.194c-0.161,0.27 -0.453,0.436 -0.876,0.498c-0.544,0.079 -1.103,-0.164 -1.679,-0.727c-0.394,-0.375 -0.626,-0.803 -0.696,-1.287c-0.123,-0.845 0.99,-5.371 3.341,-13.578c3.296,-11.459 7.37,-22.97 12.223,-34.533c1.964,-4.727 3.177,-7.51 3.641,-8.348c0.502,-0.999 1.025,-1.538 1.569,-1.617c0.664,-0.097 1.301,0.15 1.911,0.739c0.394,0.375 0.633,0.849 0.717,1.423c0.092,0.634 -0.078,1.476 -0.511,2.526c-0.09,0.229 -0.815,1.923 -2.174,5.081c-4.234,9.252 -7.204,16.809 -8.909,22.671Zm-6.355,19.568c0.541,0.538 1.068,0.924 1.58,1.158c0.512,0.234 1.025,0.313 1.538,0.238c2.627,-0.383 5.073,-3.067 7.338,-8.054c1.06,-2.252 1.835,-4.446 2.325,-6.584c0.431,-1.913 0.582,-3.308 0.455,-4.183c-0.088,-0.604 -0.289,-1.03 -0.603,-1.277c-0.313,-0.248 -0.757,-0.329 -1.331,-0.246c-1.389,0.203 -2.926,1.398 -4.612,3.587c-1.69,2.158 -3.229,5.142 -4.617,8.953c-0.659,1.823 -1.213,3.523 -1.662,5.099c-0.274,0.873 -0.411,1.309 -0.411,1.309Z" style="fill:#fff;fill-opacity:.6;fill-rule:nonzero"/><path d="M262.886,79.082c-2.226,3.563 -4.027,6.23 -5.403,8.004c-2.73,3.482 -5.153,5.377 -7.267,5.685c-1.027,0.149 -1.897,-0.109 -2.611,-0.776c-0.541,-0.538 -0.877,-1.26 -1.009,-2.166c-0.476,-3.262 0.826,-7.877 3.903,-13.846c3.125,-6.068 5.564,-9.23 7.315,-9.485c0.483,-0.07 0.937,0.08 1.361,0.45c0.381,0.283 0.604,0.652 0.67,1.105c0.097,0.664 0.008,1.271 -0.267,1.82c-0.275,0.548 -1.102,1.802 -2.482,3.761c-1.462,2.033 -2.765,4.197 -3.911,6.492c-1.318,2.597 -1.898,4.439 -1.739,5.527c0.092,0.634 0.44,0.907 1.044,0.819c1.208,-0.176 3.233,-2.152 6.076,-5.928c1.78,-2.387 3.155,-4.376 4.126,-5.967c0.198,-0.337 1.046,-1.926 2.544,-4.766c1.361,-2.511 2.207,-4.007 2.538,-4.487c0.752,-1.188 1.521,-1.84 2.306,-1.955c0.483,-0.07 0.952,0.078 1.406,0.443c0.419,0.34 0.667,0.767 0.741,1.28c0.128,0.876 -0.263,2.428 -1.171,4.658c-1.085,2.718 -2.072,5.252 -2.963,7.602c-1.41,3.659 -2.435,6.893 -3.074,9.7c1.77,-1.399 3.336,-3.031 4.699,-4.895c2.322,-3.114 3.688,-5.379 4.098,-6.796c0.398,-1.291 0.899,-1.981 1.503,-2.069c0.845,-0.123 1.33,0.238 1.453,1.084c0.233,1.6 -0.778,4.184 -3.034,7.751c-2.707,4.28 -6.253,8.096 -10.637,11.449c-1.647,6.47 -3.311,11.878 -4.991,16.225c-3.15,8.014 -6.974,12.349 -11.474,13.005c-1.842,0.269 -3.425,-0.226 -4.749,-1.482c-1.034,-0.96 -1.673,-2.27 -1.915,-3.931c-0.686,-4.711 1.919,-10.009 7.815,-15.895c1.722,-1.732 4.326,-3.961 7.815,-6.69c1.412,-1.1 2.517,-1.986 3.313,-2.657c0.341,-1.469 0.903,-3.432 1.686,-5.89c0.878,-2.656 1.639,-5.049 2.285,-7.179Zm-5.741,19.017c-2.963,2.097 -5.901,4.9 -8.813,8.408c-2.929,3.603 -4.198,6.749 -3.806,9.436c0.084,0.574 0.32,1.033 0.709,1.377c0.533,0.478 1.161,0.664 1.886,0.558c2.265,-0.33 4.426,-3.066 6.483,-8.207c0.339,-0.851 1.196,-3.644 2.573,-8.378c0.29,-0.968 0.613,-2.032 0.968,-3.194Z" style="fill:#fff;fill-opacity:.6;fill-rule:nonzero"/><path d="M331.025,75.26c1.419,-7.825 3.343,-15.368 5.769,-22.63c1.918,-5.676 4.561,-12.83 7.929,-21.463c2.494,-6.377 4.186,-10.216 5.076,-11.518c0.889,-1.302 1.893,-2.034 3.01,-2.197c0.967,-0.14 1.511,0.212 1.634,1.058c0.067,0.453 -0.059,1.072 -0.376,1.859c-0.292,0.751 -1.248,2.972 -2.869,6.663c-5.321,12.371 -9.05,22.444 -11.186,30.218c-1.944,6.976 -3.501,13.756 -4.669,20.341c-0.425,2.375 -1.011,4.172 -1.759,5.391c-1.091,1.824 -2.316,2.836 -3.675,3.034c-1.238,0.18 -2.153,-0.596 -2.745,-2.33c-0.257,-0.702 -0.534,-2.081 -0.834,-4.134c-1.051,-7.218 -1.51,-15.339 -1.376,-24.364c0.142,-7.915 0.521,-14.308 1.138,-19.178c-2.433,3.623 -5.789,10.959 -10.07,22.007c-3.381,8.757 -5.693,16.804 -6.937,24.14c-0.514,3.036 -0.931,4.932 -1.253,5.688c-0.591,1.443 -1.506,2.255 -2.744,2.435c-0.514,0.075 -0.983,-0.073 -1.407,-0.443c-0.354,-0.318 -0.558,-0.658 -0.611,-1.021c-0.167,-1.147 0.372,-4.325 1.618,-9.534c1.604,-6.771 4.624,-15.569 9.06,-26.393c2.637,-6.459 5.882,-13.393 9.737,-20.801c1.829,-3.536 3.233,-5.853 4.214,-6.952c0.904,-0.995 1.809,-1.559 2.715,-1.691c0.392,-0.057 0.757,0.013 1.094,0.211c0.472,0.27 0.742,0.647 0.813,1.13c0.088,0.604 0.036,1.306 -0.156,2.105c-0.909,3.925 -1.653,9.292 -2.234,16.1c-0.902,10.956 -0.811,20.148 0.271,27.577c0.15,1.027 0.424,2.591 0.823,4.692Z" style="fill:#fff;fill-opacity:.6;fill-rule:nonzero"/><path d="M363.583,64.409c-2.225,3.563 -4.026,6.23 -5.402,8.004c-2.731,3.482 -5.153,5.377 -7.267,5.685c-1.027,0.149 -1.897,-0.109 -2.611,-0.776c-0.541,-0.538 -0.878,-1.26 -1.01,-2.166c-0.475,-3.262 0.826,-7.877 3.904,-13.846c3.125,-6.068 5.563,-9.23 7.315,-9.485c0.483,-0.07 0.936,0.08 1.36,0.45c0.381,0.283 0.604,0.652 0.67,1.105c0.097,0.664 0.008,1.271 -0.267,1.82c-0.274,0.549 -1.102,1.802 -2.481,3.761c-1.462,2.033 -2.766,4.197 -3.912,6.492c-1.318,2.597 -1.897,4.439 -1.739,5.527c0.093,0.634 0.441,0.907 1.045,0.819c1.208,-0.176 3.233,-2.152 6.075,-5.928c1.78,-2.387 3.156,-4.376 4.127,-5.967c0.197,-0.337 1.045,-1.926 2.543,-4.766c1.361,-2.511 2.208,-4.006 2.538,-4.486c0.752,-1.189 1.521,-1.841 2.306,-1.956c0.483,-0.07 0.952,0.078 1.406,0.443c0.42,0.34 0.667,0.767 0.742,1.28c0.127,0.876 -0.263,2.428 -1.172,4.658c-1.084,2.718 -2.072,5.252 -2.963,7.602c-1.41,3.659 -2.434,6.893 -3.074,9.7c1.77,-1.399 3.336,-3.031 4.699,-4.895c2.322,-3.114 3.688,-5.379 4.099,-6.796c0.397,-1.291 0.898,-1.981 1.502,-2.069c0.846,-0.123 1.33,0.238 1.453,1.084c0.234,1.6 -0.778,4.184 -3.033,7.751c-2.707,4.28 -6.253,8.096 -10.637,11.449c-1.648,6.47 -3.312,11.878 -4.991,16.225c-3.15,8.014 -6.975,12.349 -11.474,13.005c-1.843,0.269 -3.426,-0.226 -4.75,-1.482c-1.034,-0.96 -1.672,-2.27 -1.914,-3.931c-0.687,-4.711 1.918,-10.009 7.815,-15.895c1.721,-1.731 4.326,-3.961 7.814,-6.69c1.413,-1.1 2.517,-1.986 3.314,-2.657c0.341,-1.469 0.903,-3.432 1.686,-5.89c0.877,-2.656 1.639,-5.049 2.284,-7.179Zm-5.74,19.017c-2.964,2.097 -5.902,4.9 -8.814,8.408c-2.929,3.603 -4.197,6.749 -3.806,9.436c0.084,0.574 0.32,1.033 0.71,1.377c0.532,0.478 1.161,0.664 1.885,0.558c2.265,-0.33 4.426,-3.066 6.483,-8.207c0.339,-0.851 1.197,-3.644 2.573,-8.378c0.291,-0.968 0.614,-2.032 0.969,-3.194Z" style="fill:#fff;fill-opacity:.6;fill-rule:nonzero"/><path d="M392.776,44.427c2.386,-0.348 3.761,0.732 4.126,3.238c0.322,2.205 -0.216,4.55 -1.611,7.035c-1.083,1.885 -2.122,2.9 -3.119,3.045c-0.845,0.123 -1.338,-0.298 -1.479,-1.265c-0.075,-0.513 -0.014,-0.938 0.184,-1.275c0.073,-0.134 0.385,-0.534 0.935,-1.201c0.469,-0.592 0.916,-1.444 1.34,-2.554c0.291,-0.752 0.406,-1.339 0.344,-1.762c-0.07,-0.483 -0.377,-0.685 -0.921,-0.606c-0.634,0.093 -1.527,0.732 -2.681,1.917c-1.82,1.9 -3.508,4.706 -5.065,8.418c-1.594,3.871 -2.242,6.834 -1.943,8.887c0.097,0.664 0.379,1.225 0.846,1.681c0.689,0.701 1.516,0.982 2.482,0.841c1.903,-0.277 3.981,-1.783 6.235,-4.517c1.91,-2.344 3.472,-4.638 4.687,-6.882c0.622,-1.231 1.22,-1.889 1.794,-1.973c0.332,-0.048 0.656,0.059 0.972,0.321c0.286,0.267 0.451,0.552 0.495,0.854c0.162,1.117 -0.955,3.5 -3.353,7.149c-3.821,5.738 -7.589,8.878 -11.303,9.419c-2.235,0.326 -4.058,-0.226 -5.468,-1.655c-1.018,-1.054 -1.643,-2.382 -1.876,-3.982c-0.458,-3.141 0.311,-6.969 2.305,-11.485c1.93,-4.321 4.365,-7.93 7.304,-10.825c1.731,-1.671 3.321,-2.612 4.77,-2.823Z" style="fill:#fff;fill-opacity:.6;fill-rule:nonzero"/><path d="M421.585,49.111c-1.255,5.148 -1.697,8.99 -1.328,11.527c0.181,1.238 0.572,2.23 1.174,2.975c0.753,0.938 1.629,1.335 2.625,1.19c2.054,-0.299 4.224,-2.019 6.511,-5.158c1.527,-2.012 2.762,-4.011 3.706,-5.999c0.609,-1.322 1.261,-2.034 1.955,-2.135c0.695,-0.102 1.093,0.195 1.194,0.89c0.167,1.147 -0.879,3.705 -3.138,7.673c-3.337,5.884 -6.938,9.107 -10.803,9.67c-2.325,0.339 -4.136,-0.554 -5.433,-2.678c-0.966,-1.555 -1.584,-3.254 -1.852,-5.096c-0.225,-1.54 -0.195,-3.873 0.09,-6.998c-1.725,1.916 -4.119,6.336 -7.181,13.259c-0.806,1.875 -1.647,2.876 -2.523,3.004c-0.453,0.066 -0.874,-0.073 -1.264,-0.417c-0.393,-0.375 -0.621,-0.773 -0.683,-1.196c-0.176,-1.208 0.822,-5.47 2.994,-12.788c3.84,-12.802 8.35,-23.76 13.529,-32.872c2.792,-4.971 5.412,-8.684 7.86,-11.138c2.204,-2.233 4.046,-3.457 5.525,-3.673c0.665,-0.097 1.293,0.089 1.886,0.558c0.761,0.567 1.212,1.334 1.353,2.301c0.374,2.567 -0.49,6.054 -2.593,10.462c-2.206,4.547 -6.249,10.24 -12.129,17.08c-3.3,3.811 -6.323,6.873 -9.07,9.185c-0.278,0.843 -1.046,3.298 -2.304,7.368c3.181,-4.627 5.762,-7.871 7.742,-9.733c1.278,-1.173 3.048,-2.464 5.31,-3.873c1.53,-0.932 2.657,-1.451 3.382,-1.557c0.392,-0.057 0.762,0.043 1.107,0.301c0.372,0.224 0.591,0.562 0.657,1.015c0.145,0.997 -0.433,1.79 -1.735,2.381c-2.193,1.029 -4.382,2.519 -6.564,4.472Zm-5.031,-7.224c4.477,-3.983 8.492,-8.808 12.046,-14.476c1.779,-2.819 3.148,-5.486 4.108,-8c0.668,-1.763 0.951,-2.992 0.85,-3.686c-0.101,-0.695 -0.469,-0.996 -1.103,-0.904c-1.691,0.247 -4.227,3.269 -7.607,9.066c-2.783,4.815 -5.548,10.815 -8.294,18Z" style="fill:#fff;fill-opacity:.6;fill-rule:nonzero"/><path d="M441.08,57.188l0.119,0.815c0.097,0.664 0.347,1.214 0.749,1.649c0.918,1.007 2.238,1.385 3.959,1.134c3.775,-0.55 7.716,-4.085 11.824,-10.604c0.73,-1.125 1.397,-1.731 2.001,-1.819c0.333,-0.048 0.659,0.074 0.979,0.367c0.216,0.215 0.34,0.428 0.371,0.64c0.171,1.177 -0.988,3.382 -3.478,6.613c-1.943,2.534 -4.097,4.683 -6.462,6.446c-2.364,1.763 -4.649,2.805 -6.853,3.127c-2.265,0.33 -4.161,-0.196 -5.689,-1.577c-1.034,-0.96 -1.687,-2.375 -1.96,-4.248c-0.744,-5.103 0.929,-10.451 5.018,-16.043c3.314,-4.554 6.421,-7.042 9.32,-7.464c0.785,-0.115 1.53,0.023 2.235,0.414c0.877,0.52 1.391,1.293 1.541,2.32c0.233,1.6 -0.221,3.671 -1.362,6.212c-2.346,5.276 -6.45,9.282 -12.312,12.018Zm0.482,-3.679c2.008,-1.033 3.55,-2.09 4.626,-3.172c1.877,-1.939 3.284,-4.025 4.223,-6.259c0.348,-0.791 0.479,-1.473 0.396,-2.047c-0.088,-0.604 -0.419,-0.864 -0.993,-0.78c-0.785,0.114 -1.817,0.866 -3.094,2.255c-2.294,2.462 -4.013,5.796 -5.158,10.003Z" style="fill:#fff;fill-opacity:.6;fill-rule:nonzero"/><path d="M469.509,46.569c-0.562,2.487 -0.965,4.489 -1.206,6.004c-0.242,1.516 -0.321,2.56 -0.238,3.134c0.11,0.755 0.528,1.08 1.252,0.974c1.088,-0.158 2.342,-1.39 3.764,-3.694c0.671,-1.115 1.617,-3.088 2.839,-5.918c0.484,-1.12 1.074,-1.73 1.768,-1.831c0.786,-0.114 1.233,0.206 1.343,0.961c0.189,1.298 -0.923,4.144 -3.336,8.535c-2.507,4.591 -5.09,7.08 -7.747,7.467c-1.148,0.167 -2.155,-0.18 -3.02,-1.041c-0.615,-0.619 -0.995,-1.427 -1.14,-2.424c-0.246,-1.691 -0.074,-4.106 0.517,-7.246c0.591,-3.139 1.586,-7 2.985,-11.583c3.605,-11.659 7.596,-21.415 11.972,-29.269c3.491,-6.307 6.656,-9.667 9.495,-10.081c0.906,-0.132 1.696,0.108 2.371,0.719c0.705,0.606 1.124,1.363 1.256,2.269c0.616,4.227 -2.134,11.814 -8.249,22.759c-2.744,4.871 -6.153,9.84 -10.226,14.905c-1.07,1.328 -2.537,3.115 -4.4,5.36Zm2.167,-7.671c5.498,-6.291 10.125,-13.904 13.881,-22.84c1.946,-4.632 2.818,-7.642 2.616,-9.032c-0.097,-0.664 -0.432,-0.954 -1.006,-0.871c-1.661,0.242 -4.199,3.989 -7.614,11.241c-2.832,5.963 -5.458,13.131 -7.877,21.502Z" style="fill:#fff;fill-opacity:.6;fill-rule:nonzero"/></g></svg>