<svg xmlns="http://www.w3.org/2000/svg" xmlns:xlink="http://www.w3.org/1999/xlink" width="100%" height="100%" version="1.1" viewBox="0 0 375 75" xml:space="preserve" style="fill-rule:evenodd;clip-rule:evenodd;stroke-linejoin:round;stroke-miterlimit:2"><g id="squiggle"><path d="M375,75l-0,-12.5c-45.272,-0 -67.771,-15.145 -90.294,-30.197c-24.241,-16.198 -48.507,-32.303 -97.206,-32.303l0,12.5c45.25,0 67.737,15.145 90.26,30.197c24.241,16.198 48.518,32.303 97.24,32.303Z" style="fill:#fff;fill-opacity:.03"/><path d="M0,75l0,-12.5c45.272,-0 67.771,-15.145 90.294,-30.197c24.241,-16.198 48.507,-32.303 97.206,-32.303l0,12.5c-45.25,0 -67.737,15.145 -90.26,30.197c-24.241,16.198 -48.518,32.303 -97.24,32.303Z" style="fill:#fff;fill-opacity:.03"/></g></svg>