<?xml version="1.0" encoding="UTF-8" standalone="no"?><!DOCTYPE svg PUBLIC "-//W3C//DTD SVG 1.1//EN" "http://www.w3.org/Graphics/SVG/1.1/DTD/svg11.dtd"><svg width="100%" height="100%" viewBox="0 0 375 75" version="1.1" xmlns="http://www.w3.org/2000/svg" xmlns:xlink="http://www.w3.org/1999/xlink" xml:space="preserve" xmlns:serif="http://www.serif.com/" style="fill-rule:evenodd;clip-rule:evenodd;stroke-linejoin:round;stroke-miterlimit:2;"><g id="squiggle"><path d="M375,75l-0,-12.5c-45.272,-0 -67.771,-15.145 -90.294,-30.197c-24.241,-16.198 -48.507,-32.303 -97.206,-32.303l0,12.5c45.25,0 67.737,15.145 90.26,30.197c24.241,16.198 48.518,32.303 97.24,32.303Z" style="fill:#fff;fill-opacity:0.03;"/><path d="M0,75l0,-12.5c45.272,-0 67.771,-15.145 90.294,-30.197c24.241,-16.198 48.507,-32.303 97.206,-32.303l0,12.5c-45.25,0 -67.737,15.145 -90.26,30.197c-24.241,16.198 -48.518,32.303 -97.24,32.303Z" style="fill:#fff;fill-opacity:0.03;"/></g></svg>